<mxfile host="app.diagrams.net" modified="2024-01-26T05:09:26.509Z" agent="Mozilla/5.0 (Windows NT 10.0; Win64; x64) AppleWebKit/537.36 (KHTML, like Gecko) Chrome/121.0.0.0 Safari/537.36" version="23.0.1" etag="iN1pnh6gwW7l2aeKDyFq" type="github">
  <diagram name="페이지-1" id="O2ANmQ6-jjNUc2ohBhk_">
    <mxGraphModel>
      <root>
        <mxCell id="0" />
        <mxCell id="1" parent="0" />
      </root>
    </mxGraphModel>
  </diagram>
</mxfile>
